<?xml version="1.0" encoding="utf-8"?>
<!-- Generator: Adobe Illustrator 25.0.1, SVG Export Plug-In . SVG Version: 6.00 Build 0)  -->
<svg version="1.1" id="Layer_1" xmlns="http://www.w3.org/2000/svg" xmlns:xlink="http://www.w3.org/1999/xlink" x="0px" y="0px"
	 viewBox="0 0 828 400" style="enable-background:new 0 0 828 400;" xml:space="preserve">
<style type="text/css">
	.st0{filter:url(#Adobe_OpacityMaskFilter);}
	.st1{fill-rule:evenodd;clip-rule:evenodd;fill:#FFFFFF;}
	.st2{mask:url(#mask-2_1_);fill-rule:evenodd;clip-rule:evenodd;fill:#FFFFFF;}
	.st3{fill-rule:evenodd;clip-rule:evenodd;fill:#D8272D;}
	.st4{fill-rule:evenodd;clip-rule:evenodd;fill:#E1EFCE;}
	.st5{filter:url(#Adobe_OpacityMaskFilter_1_);}
	.st6{mask:url(#mask-4_1_);fill-rule:evenodd;clip-rule:evenodd;fill:#E1EFCE;}
	.st7{filter:url(#Adobe_OpacityMaskFilter_2_);}
	.st8{mask:url(#mask-4_2_);fill-rule:evenodd;clip-rule:evenodd;fill:#E1EFCE;}
</style>
<desc>Created with Sketch.</desc>
<g id="NDTV_Food_logo-on-dark-bg-">
	<g id="NDTV_FOOD-Copy" transform="translate(5.000000, 2.000000)">
		<g id="Group-3">
			<g id="Clip-2">
			</g>
			<defs>
				<filter id="Adobe_OpacityMaskFilter" filterUnits="userSpaceOnUse" x="0" y="0.8" width="107.9" height="79.8">
					<feColorMatrix  type="matrix" values="1 0 0 0 0  0 1 0 0 0  0 0 1 0 0  0 0 0 1 0"/>
				</filter>
			</defs>
			<mask maskUnits="userSpaceOnUse" x="0" y="0.8" width="107.9" height="79.8" id="mask-2_1_">
				<g class="st0">
					<polygon id="path-1_1_" class="st1" points="0.1,0.8 107.9,0.8 107.9,80.7 0.1,80.7 					"/>
				</g>
			</mask>
			<path id="Fill-1" class="st2" d="M82.6,57.8h-0.8c-5.5,0-8.7-5.5-10.1-7.9L57.8,21.8c-6.5-13.1-18.3-21-31.3-21H0v79.8h25.6V23.7
				h0.8c5.7,0,9.3,6,10.1,7.9l14.2,28.1c6,13.1,17.7,21,31.1,21h26.2V0.8H82.6V57.8"/>
		</g>
		<path id="Fill-4" class="st1" d="M168.4,0.8h-52.6v79.8h52.6V61.9h-27.8V19.7h27.8V0.8z M396.5,0.8l-31.1,59.4l-33-59.4H168.4
			v18.8h13.3c9.6,0,14.2,4.9,14.2,12.2v17.4c0,8.2-4.4,12.5-14.2,12.5h-13.3v18.8h16.9c24,0,35.4-13.9,35.4-36.8v-8.7
			c0-2.4,0-9-1.9-15.5H257v61h24.5v-61h34.3l34.1,61h30.8L423,0.8H396.5z"/>
		<path id="Fill-5" class="st3" d="M127.1,40.8c0,8.1-6.6,14.9-15.2,14.9c-8.3,0-14.9-6.8-14.9-14.9c0-8.1,6.6-15.2,14.9-15.2
			C120.5,25.6,127.1,32.7,127.1,40.8"/>
		<path id="Fill-6" class="st4" d="M420.2,134.3c0,0,4.6-108.4,172.4-106.9c0,0,6.8-7.6,8.4-0.6c1.5,7,3.4,85.2-90.4,86
			C450,113.5,420.2,134.3,420.2,134.3"/>
		<path id="Fill-7" class="st4" d="M425.7,126.8c0,0,13.4-97.1,167.6-95.7c0,0,3.4-6.5,4.9,0c1.4,6.4-1.7,75.7-88,76.5
			C454.5,108.1,425.7,126.8,425.7,126.8"/>
		<path id="Fill-8" class="st4" d="M301.3,291.5c-35.3,0-64-28.6-64-64c0-35.3,28.7-64,64-64c35.3,0,64,28.6,64,64
			C365.3,262.8,336.7,291.5,301.3,291.5z M301.3,99.2c-70.9,0-128.3,57.4-128.3,128.3c0,70.9,57.5,128.3,128.3,128.3
			c39.9,0,75.5-18.2,99-46.7l-19.8-59.3l46.7-47.5C415.5,143.5,363.6,99.2,301.3,99.2z"/>
		<g id="Clip-10">
		</g>
		<defs>
			<filter id="Adobe_OpacityMaskFilter_1_" filterUnits="userSpaceOnUse" x="177.4" y="103.7" width="246.2" height="247.7">
				<feColorMatrix  type="matrix" values="1 0 0 0 0  0 1 0 0 0  0 0 1 0 0  0 0 0 1 0"/>
			</filter>
		</defs>
		<mask maskUnits="userSpaceOnUse" x="177.4" y="103.7" width="246.2" height="247.7" id="mask-4_1_">
			<g class="st5">
				<polygon id="path-3_1_" class="st1" points="177.4,103.7 590.5,103.7 590.5,395.9 177.4,395.9 				"/>
			</g>
		</mask>
		<path id="Fill-9" class="st6" d="M301.3,295.8c-37.8,0-68.4-30.6-68.4-68.3c0-37.7,30.6-68.3,68.4-68.3
			c37.8,0,68.4,30.6,68.4,68.3C369.7,265.2,339.1,295.8,301.3,295.8z M301.3,103.7c-68.4,0-123.9,55.4-123.9,123.8
			c0,68.4,55.5,123.8,123.9,123.8c40.3,0,76.1-19.2,98.7-49l-20.3-55.7l44-38.5C414.4,149,363.1,103.7,301.3,103.7z"/>
		<defs>
			<filter id="Adobe_OpacityMaskFilter_2_" filterUnits="userSpaceOnUse" x="333.8" y="139.4" width="256.7" height="256.6">
				<feColorMatrix  type="matrix" values="1 0 0 0 0  0 1 0 0 0  0 0 1 0 0  0 0 0 1 0"/>
			</filter>
		</defs>
		<mask maskUnits="userSpaceOnUse" x="333.8" y="139.4" width="256.7" height="256.6" id="mask-4_2_">
			<g class="st7">
				<polygon id="path-3_2_" class="st1" points="177.4,103.7 590.5,103.7 590.5,395.9 177.4,395.9 				"/>
			</g>
		</mask>
		<path id="Fill-11" class="st8" d="M462.2,331.7c-35.3,0-64-28.6-64-64c0-35.3,28.7-64,64-64c35.3,0,64,28.6,64,64
			C526.2,303,497.5,331.7,462.2,331.7z M462.2,139.4c-70.9,0-128.3,57.4-128.3,128.3c0,70.9,57.5,128.3,128.3,128.3
			c70.9,0,128.3-57.4,128.3-128.3C590.5,196.9,533.1,139.4,462.2,139.4z"/>
		<path id="Fill-13" class="st4" d="M462.2,336c-37.8,0-68.4-30.6-68.4-68.3c0-37.7,30.6-68.3,68.4-68.3c37.8,0,68.4,30.6,68.4,68.3
			C530.5,305.4,499.9,336,462.2,336z M462.2,143.9c-68.4,0-123.9,55.4-123.9,123.8c0,68.4,55.5,123.8,123.9,123.8
			S586,336.1,586,267.7C586,199.3,530.6,143.9,462.2,143.9z"/>
		<polyline id="Fill-14" class="st4" points="148.1,170 148.1,121.4 1.1,121.4 1.1,371.1 63.2,371.1 63.2,272.7 139.3,272.7 
			139.3,224.1 63.2,224.1 63.2,170 148.1,170 		"/>
		<path id="Fill-16" class="st4" d="M750.1,261.4c0,22.9-23,54.8-45.9,54.8h-31.7V176.3h31.7c22.9,0,45.9,31.9,45.9,54.8
			c0,0,0.6,11.3,0.6,15.1S750.1,261.4,750.1,261.4z M816.5,224.7c0-57.4-46.5-103.9-103.9-103.9h-102v250.8h102
			c57.4,0,103.9-46.5,103.9-103.9c0,0,0.5-16.2,0.5-21.5C816.9,240.9,816.5,224.7,816.5,224.7z"/>
		<polygon class="st4" points="5.7,148.5 5.5,148.5 5.5,366.6 58.7,366.6 58.7,268.3 134.8,268.3 134.8,228.6 58.7,228.6 
			58.7,165.5 143.6,165.5 143.6,125.9 5.7,125.9 		"/>
		<path class="st4" d="M812,224.7c0-57.4-42-99.4-99.4-99.4H615v241.9h97.6c57.4,0,99.4-42,99.4-99.4c0,0,0.5-16.2,0.5-21.5
			C812.5,240.9,812,224.7,812,224.7z M754.6,261.4c0,22.9-27.5,59.3-50.4,59.3H668V171.9h36.2c22.9,0,50.4,36.4,50.4,59.3
			c0,0,0.6,11.3,0.6,15.1C755.2,250,754.6,261.4,754.6,261.4z"/>
	</g>
</g>
</svg>
